<svg width="45" height="38" viewBox="0 0 45 38" fill="none" xmlns="http://www.w3.org/2000/svg">
<path d="M1.03403 29.6414V23.2948C1.03403 23.0024 1.32902 22.8024 1.60061 22.9105L20.8294 30.5646C21.7975 30.95 22.8754 30.9558 23.8476 30.5808L43.4878 23.0053C43.7587 22.9008 44.0502 23.1008 44.0502 23.3912V29.7416C44.0502 29.9132 43.9442 30.067 43.7838 30.1281L23.8314 37.729C22.8688 38.0958 21.804 38.0901 20.8454 37.7131L1.29629 30.0264C1.13806 29.9641 1.03403 29.8114 1.03403 29.6414Z" fill="#1A2D48"/>
<path d="M33.6064 27.6737V33.5284C33.6064 33.7859 33.4474 34.0166 33.2068 34.1082L29.019 35.7036C28.6129 35.8583 28.1777 35.5584 28.1777 35.1238V29.289C28.1777 29.0325 28.3355 28.8025 28.5748 28.7101L32.7627 27.0948C33.1692 26.938 33.6064 27.238 33.6064 27.6737Z" fill="#1A2D48"/>
<path d="M33.6064 33.5284V27.6738C33.6064 27.2381 33.1691 26.938 32.7626 27.0948L28.5747 28.7103C28.3355 28.8026 28.1777 29.0326 28.1777 29.2891V35.1237C28.1777 35.5447 28.5861 35.8394 28.9809 35.7167L29.019 35.7036L33.2069 34.1083C33.4324 34.0223 33.5862 33.8141 33.6046 33.5763L33.6064 33.5284ZM34.6404 33.5284C34.6404 34.2149 34.2164 34.8301 33.5749 35.0745L29.387 36.67C28.3041 37.0824 27.1436 36.2825 27.1436 35.1237V29.2891C27.1436 28.6051 27.5645 27.9916 28.2027 27.7455L32.3906 26.13L32.4415 26.1114C33.5107 25.7371 34.6404 26.5302 34.6404 27.6738V33.5284Z" fill="white"/>
<path d="M1.03403 29.6414V23.2948C1.03403 23.0024 1.32902 22.8024 1.60061 22.9105L5.96838 24.6491C6.20444 24.7431 6.35935 24.9715 6.35935 25.2255V31.1066C6.35935 31.5439 5.91893 31.844 5.51189 31.6839L1.29629 30.0264C1.13806 29.9641 1.03403 29.8114 1.03403 29.6414Z" fill="#1A2D48"/>
<path d="M0 23.2949C0 22.3037 0.968982 21.6154 1.89379 21.9175L1.98306 21.9498L6.35088 23.6883C6.98036 23.9389 7.39341 24.5481 7.39341 25.2256V31.1065C7.39341 32.2729 6.21889 33.0731 5.13346 32.6463L0.917915 30.9886C0.364168 30.7708 2.89634e-05 30.2365 0 29.6415V23.2949ZM1.03404 29.6415C1.03407 29.8115 1.13819 29.9642 1.29639 30.0264L5.51193 31.6839C5.91897 31.844 6.35936 31.5439 6.35936 31.1065V25.2256C6.35936 24.9715 6.20443 24.743 5.96837 24.649L1.60055 22.9105C1.32896 22.8025 1.03404 23.0026 1.03404 23.2949V29.6415Z" fill="white"/>
<path d="M30.4009 31.8879C30.4009 32.1734 30.1694 32.4049 29.8838 32.4049C29.5983 32.4049 29.3668 32.1734 29.3668 31.8879C29.3668 31.6024 29.5983 31.3709 29.8838 31.3709C30.1694 31.3709 30.4009 31.6024 30.4009 31.8879Z" fill="white"/>
<path d="M23.9473 29.3439L42.4577 22.2074C42.7243 22.1046 42.7219 21.7265 42.454 21.6271L23.8973 14.7445C22.9607 14.3971 21.9301 14.4004 20.9958 14.7538L2.82047 21.6278C2.55502 21.7282 2.55259 22.1028 2.81671 22.2067L20.9461 29.334C21.91 29.7129 22.981 29.7165 23.9473 29.3439Z" fill="white"/>
<path d="M23.8111 28.9498L43.269 21.5837C43.538 21.4819 43.5356 21.1005 43.2653 21.0021L23.7616 13.8991C22.839 13.563 21.8268 13.5662 20.9063 13.9081L1.80201 21.0028C1.53423 21.1022 1.5318 21.4801 1.79829 21.583L20.8572 28.9402C21.8071 29.3068 22.8589 29.3103 23.8111 28.9498Z" fill="#10B981"/>
<path d="M23.9473 23.7601L42.4577 16.6236C42.7243 16.5208 42.7219 16.1427 42.454 16.0433L23.8973 9.16068C22.9607 8.8133 21.9301 8.81661 20.9958 9.16998L2.82047 16.044C2.55502 16.1444 2.55259 16.519 2.81671 16.6229L20.9461 23.7502C21.91 24.1291 22.981 24.1327 23.9473 23.7601Z" fill="white"/>
<path d="M23.8111 22.1251L43.269 14.759C43.538 14.6572 43.5356 14.2758 43.2653 14.1774L23.7616 7.07439C22.839 6.73836 21.8268 6.74156 20.9063 7.08342L1.80201 14.1781C1.53423 14.2775 1.5318 14.6554 1.79829 14.7583L20.8572 22.1155C21.8071 22.4822 22.8589 22.4856 23.8111 22.1251Z" fill="#10B981"/>
<path d="M23.9473 16.9354L42.4577 9.79895C42.7243 9.69615 42.7219 9.31803 42.454 9.21865L23.8973 2.336C22.9607 1.98863 21.9301 1.99193 20.9958 2.3453L2.82047 9.21934C2.55502 9.31973 2.55259 9.69436 2.81671 9.79819L20.9461 16.9255C21.91 17.3045 22.981 17.308 23.9473 16.9354Z" fill="white"/>
<path d="M23.8111 15.3004L43.269 7.93435C43.538 7.83252 43.5356 7.45116 43.2653 7.35274L23.7616 0.249714C22.839 -0.0863148 21.8268 -0.0831149 20.9063 0.25874L1.80201 7.35341C1.53423 7.45285 1.5318 7.83074 1.79829 7.93361L20.8572 15.2908C21.8071 15.6575 22.8589 15.6609 23.8111 15.3004Z" fill="#1A2D48"/>
</svg>
