<svg width="809" height="809" viewBox="0 0 809 809" fill="none" xmlns="http://www.w3.org/2000/svg">
<path d="M0 0H809V809H0V0Z" fill="white"/>
<path d="M580.227 578.765C554.223 578.765 529.302 575.36 505.465 568.549C481.628 561.429 462.435 552.297 447.885 541.152L473.425 484.5C487.355 494.407 503.763 502.61 522.647 509.111C541.84 515.303 561.188 518.399 580.691 518.399C595.551 518.399 607.469 517.005 616.447 514.219C625.734 511.124 632.545 506.944 636.879 501.682C641.213 496.419 643.38 490.382 643.38 483.572C643.38 474.904 639.975 468.093 633.164 463.14C626.353 457.877 617.376 453.698 606.231 450.602C595.086 447.197 582.704 444.101 569.082 441.315C555.771 438.219 542.304 434.504 528.683 430.17C515.372 425.836 503.143 420.264 491.999 413.453C480.854 406.643 471.722 397.665 464.602 386.521C457.791 375.376 454.386 361.136 454.386 343.8C454.386 325.225 459.339 308.354 469.245 293.185C479.461 277.706 494.63 265.478 514.752 256.5C535.184 247.213 560.724 242.569 591.372 242.569C611.803 242.569 631.926 245.046 651.738 249.999C671.551 254.643 689.042 261.763 704.211 271.36L680.993 328.476C665.824 319.808 650.655 313.462 635.486 309.437C620.317 305.103 605.457 302.936 590.907 302.936C576.357 302.936 564.439 304.639 555.152 308.044C545.865 311.449 539.209 315.938 535.184 321.51C531.16 326.773 529.148 332.965 529.148 340.085C529.148 348.443 532.553 355.254 539.363 360.517C546.174 365.47 555.152 369.494 566.296 372.59C577.441 375.686 589.669 378.781 602.981 381.877C616.602 384.973 630.068 388.533 643.38 392.557C657.001 396.582 669.384 401.999 680.529 408.81C691.673 415.62 700.651 424.598 707.461 435.743C714.581 446.887 718.142 460.973 718.142 477.999C718.142 496.264 713.034 512.981 702.818 528.15C692.602 543.319 677.278 555.547 656.846 564.834C636.724 574.122 611.184 578.765 580.227 578.765Z" fill="#1A2D48"/>
<path d="M118.354 573.193V248.142H277.164C318.028 248.142 348.675 255.881 369.107 271.36C389.849 286.838 400.219 307.27 400.219 332.655C400.219 349.682 396.04 364.541 387.682 377.234C379.323 389.616 367.869 399.213 353.319 406.024C338.769 412.834 322.052 416.24 303.168 416.24L311.991 397.201C332.423 397.201 350.533 400.606 366.321 407.417C382.109 413.918 394.337 423.669 403.005 436.672C411.983 449.674 416.472 465.617 416.472 484.5C416.472 512.362 405.482 534.187 383.502 549.975C361.523 565.454 329.172 573.193 286.451 573.193H118.354ZM193.115 516.541H280.879C300.382 516.541 315.087 513.445 324.993 507.254C335.209 500.753 340.317 490.537 340.317 476.606C340.317 462.985 335.209 452.924 324.993 446.423C315.087 439.612 300.382 436.207 280.879 436.207H187.543V381.413H267.877C286.142 381.413 300.073 378.317 309.669 372.126C319.576 365.625 324.529 355.873 324.529 342.871C324.529 330.179 319.576 320.737 309.669 314.545C300.073 308.044 286.142 304.794 267.877 304.794H193.115V516.541Z" fill="#1A2D48"/>
</svg>
