<svg width="26" height="21" viewBox="0 0 26 21" fill="none" xmlns="http://www.w3.org/2000/svg">
<path d="M0 0L6.5 5.43529L13 0L19.5 5.43529L26 0V19.7647C26 20.4469 25.4457 21 24.7619 21H1.2381C0.554314 21 0 20.4469 0 19.7647V0Z" fill="#10B981"/>
<path d="M5.73498 17.2941V8.31016H9.34023C10.0027 8.31016 10.5552 8.40813 10.9978 8.60407C11.4404 8.80001 11.773 9.07198 11.9958 9.41999C12.2186 9.76508 12.33 10.1628 12.33 10.6132C12.33 10.9641 12.2596 11.2726 12.1189 11.5388C11.9782 11.802 11.7848 12.0184 11.5386 12.188C11.2953 12.3547 11.0168 12.4731 10.7032 12.5433V12.6311C11.0461 12.6457 11.3671 12.7422 11.6661 12.9206C11.968 13.099 12.2127 13.349 12.4003 13.6707C12.5879 13.9895 12.6817 14.3697 12.6817 14.8112C12.6817 15.2879 12.563 15.7134 12.3256 16.0878C12.0911 16.4592 11.7437 16.7531 11.2835 16.9695C10.8234 17.1859 10.2562 17.2941 9.58205 17.2941H5.73498ZM7.63873 15.7412H9.19075C9.72128 15.7412 10.1082 15.6403 10.3515 15.4385C10.5947 15.2338 10.7164 14.9619 10.7164 14.6226C10.7164 14.374 10.6563 14.1547 10.5361 13.9646C10.4159 13.7745 10.2445 13.6254 10.0217 13.5172C9.80188 13.409 9.53955 13.3549 9.23471 13.3549H7.63873V15.7412ZM7.63873 12.0696H9.05005C9.31092 12.0696 9.54248 12.0242 9.74472 11.9336C9.9499 11.84 10.1111 11.7084 10.2284 11.5388C10.3485 11.3692 10.4086 11.1659 10.4086 10.929C10.4086 10.6044 10.2928 10.3427 10.0613 10.1438C9.83266 9.94494 9.50731 9.8455 9.08523 9.8455H7.63873V12.0696Z" fill="#E7F8F2"/>
<path d="M18.8051 10.8939C18.7699 10.5401 18.619 10.2652 18.3523 10.0692C18.0855 9.87329 17.7235 9.77532 17.2663 9.77532C16.9556 9.77532 16.6933 9.81918 16.4793 9.90692C16.2653 9.99173 16.1012 10.1102 15.9869 10.2622C15.8755 10.4143 15.8198 10.5869 15.8198 10.7799C15.8139 10.9407 15.8476 11.0811 15.9209 11.201C15.9971 11.3209 16.1012 11.4247 16.2331 11.5124C16.365 11.5973 16.5174 11.6718 16.6903 11.7362C16.8633 11.7976 17.0479 11.8502 17.2443 11.8941L18.0533 12.0871C18.4461 12.1748 18.8066 12.2918 19.1349 12.438C19.4631 12.5843 19.7475 12.7641 19.9878 12.9776C20.2282 13.1911 20.4143 13.4426 20.5462 13.7321C20.681 14.0216 20.7499 14.3536 20.7528 14.7279C20.7499 15.2777 20.6092 15.7544 20.3307 16.158C20.0552 16.5586 19.6566 16.8701 19.1349 17.0923C18.6161 17.3117 17.9903 17.4213 17.2575 17.4213C16.5306 17.4213 15.8975 17.3102 15.3581 17.0879C14.8217 16.8657 14.4026 16.5367 14.1007 16.1009C13.8017 15.6623 13.6449 15.1198 13.6303 14.4735H15.4725C15.493 14.7747 15.5794 15.0262 15.7319 15.228C15.8872 15.4268 16.0938 15.5775 16.3518 15.6798C16.6127 15.7792 16.9072 15.829 17.2355 15.829C17.5579 15.829 17.8378 15.7822 18.0753 15.6886C18.3156 15.595 18.5017 15.4649 18.6336 15.2982C18.7655 15.1315 18.8315 14.9399 18.8315 14.7235C18.8315 14.5217 18.7714 14.3521 18.6512 14.2147C18.534 14.0772 18.361 13.9602 18.1324 13.8637C17.9067 13.7672 17.6297 13.6795 17.3015 13.6005L16.321 13.3549C15.5619 13.1706 14.9624 12.8826 14.5228 12.4907C14.0831 12.0988 13.8647 11.5709 13.8677 10.9071C13.8647 10.3631 14.0098 9.88791 14.3029 9.48141C14.599 9.07491 15.0049 8.7576 15.5208 8.5295C16.0367 8.30139 16.6229 8.18733 17.2795 8.18733C17.9478 8.18733 18.5311 8.30139 19.0293 8.5295C19.5306 8.7576 19.9204 9.07491 20.1988 9.48141C20.4773 9.88791 20.6209 10.3587 20.6297 10.8939H18.8051Z" fill="#E7F8F2"/>
</svg>
